<svg width="257" height="256" viewBox="0 0 257 256" fill="none" xmlns="http://www.w3.org/2000/svg">
<path d="M141.434 139.795L133.962 160.298C133.777 160.853 133.777 161.471 133.962 162.089L146.807 197.351L161.69 188.767L143.843 139.795C143.411 138.684 141.867 138.684 141.434 139.795Z" fill="white"/>
<path d="M156.441 105.336C156.008 104.225 154.465 104.225 154.032 105.336L146.56 125.839C146.375 126.395 146.375 127.012 146.56 127.63L167.618 185.37L182.501 176.786L156.441 105.398V105.336Z" fill="white"/>
<path d="M130.01 60.4403C130.38 60.4403 130.751 60.5638 131.059 60.7491L187.75 93.4791C188.43 93.8496 188.8 94.5907 188.8 95.3317V160.792C188.8 161.533 188.368 162.274 187.75 162.644L131.059 195.374C130.751 195.56 130.38 195.683 130.01 195.683C129.639 195.683 129.269 195.56 128.96 195.374L72.2689 162.644C71.5896 162.274 71.2191 161.533 71.2191 160.792V95.27C71.2191 94.5289 71.6514 93.7879 72.2689 93.4173L128.96 60.6873C129.269 60.502 129.639 60.3785 130.01 60.3785V60.4403ZM130.01 50.8683C127.972 50.8683 125.996 51.3623 124.143 52.4122L67.452 85.1422C63.8085 87.2418 61.5853 91.0706 61.5853 95.27V160.73C61.5853 164.929 63.8085 168.758 67.452 170.858L124.143 203.588C125.934 204.638 127.972 205.132 130.01 205.132C132.048 205.132 134.024 204.638 135.876 203.588L192.567 170.858C196.211 168.758 198.434 164.929 198.434 160.73V95.27C198.434 91.0706 196.211 87.2418 192.567 85.1422L135.815 52.4122C134.024 51.3623 131.986 50.8683 129.948 50.8683H130.01Z" fill="white"/>
<path d="M125.193 90.6384H110.804C109.754 90.6384 108.766 91.3177 108.395 92.3058L77.5798 176.786L92.4627 185.37L126.428 92.3058C126.737 91.4412 126.119 90.5767 125.255 90.5767L125.193 90.6384Z" fill="white"/>
<path d="M150.389 90.6384H136C134.95 90.6384 133.962 91.3177 133.591 92.3058L98.3912 188.767L113.274 197.351L151.562 92.3058C151.871 91.4412 151.253 90.5767 150.389 90.5767V90.6384Z" fill="white"/>
</svg>
