<svg width="257" height="256" viewBox="0 0 257 256" fill="none" xmlns="http://www.w3.org/2000/svg">
<path fill-rule="evenodd" clip-rule="evenodd" d="M92.7214 189.211H68.6202C63.5558 189.211 61.0542 189.211 59.5289 188.232C57.8814 187.16 56.8747 185.385 56.7526 183.426C56.661 181.621 57.912 179.417 60.4136 175.009L119.923 69.7751C122.455 65.3064 123.736 63.0721 125.353 62.2458C127.092 61.3582 129.166 61.3582 130.905 62.2458C132.522 63.0721 133.804 65.3064 136.336 69.7751L148.57 91.2002L148.632 91.3095C151.367 96.1035 152.754 98.5346 153.359 101.086C154.03 103.871 154.03 106.81 153.359 109.595C152.749 112.166 151.376 114.615 148.6 119.481L117.341 174.917L117.261 175.059C114.508 179.893 113.112 182.343 111.179 184.191C109.074 186.212 106.542 187.68 103.765 188.508C101.233 189.211 98.396 189.211 92.7214 189.211ZM153.585 189.211H188.119C193.214 189.211 195.777 189.211 197.303 188.202C198.95 187.131 199.987 185.324 200.08 183.366C200.168 181.619 198.944 179.501 196.546 175.35C196.463 175.208 196.381 175.064 196.296 174.918L178.998 145.229L178.801 144.895C176.37 140.771 175.143 138.688 173.567 137.883C171.829 136.996 169.784 136.996 168.046 137.883C166.459 138.71 165.178 140.883 162.646 145.26L145.409 174.949L145.35 175.051C142.827 179.421 141.565 181.604 141.656 183.396C141.778 185.355 142.785 187.16 144.433 188.232C145.928 189.211 148.49 189.211 153.585 189.211Z" fill="white"/>
</svg>
