<svg width="257" height="257" viewBox="0 0 257 257" fill="none" xmlns="http://www.w3.org/2000/svg">
<path d="M164.896 46.4927C140.266 42.2463 115.637 42.2463 91.0084 46.4927C79.9678 48.1912 69.7764 53.2869 62.1329 61.7797C54.4894 70.2724 48.5445 79.6145 46.8459 91.5044C42.5995 116.133 42.5995 140.762 46.8459 165.392C48.5445 176.432 53.6401 187.473 62.1329 195.116C70.6257 203.609 80.817 208.705 91.8576 210.403C103.748 212.102 116.487 212.951 128.377 212.951C141.116 212.951 153.006 212.102 164.896 209.554C175.936 207.855 186.977 202.76 194.62 194.267C203.113 185.774 208.209 175.583 209.907 164.542C211.606 152.652 212.455 139.913 212.455 128.023C212.455 115.284 211.606 103.394 209.058 91.5044C207.359 80.4638 202.264 70.2724 193.771 61.7797C186.977 53.2869 176.785 48.1912 164.896 46.4927ZM111.391 184.076C108.843 184.076 107.145 183.226 105.446 181.528C102.898 178.98 102.898 173.884 104.597 171.336L125.829 142.461L91.0084 139.064C87.6113 139.064 84.2141 136.516 83.3649 132.27C82.5156 128.873 83.3649 124.626 85.9127 122.078L139.417 73.6695C141.116 71.971 142.814 71.1217 145.362 71.1217C147.91 71.1217 149.609 71.971 151.307 73.6695C153.855 77.0666 153.855 81.313 152.156 84.7101L130.924 113.586L165.745 116.983C169.142 116.983 172.539 119.531 174.238 123.777C175.087 127.174 174.238 131.42 171.69 133.968L118.185 182.377C115.637 183.226 113.939 184.076 111.391 184.076Z" fill="white"/>
</svg>
