<svg width="257" height="257" viewBox="0 0 257 257" fill="none" xmlns="http://www.w3.org/2000/svg">
<path fill-rule="evenodd" clip-rule="evenodd" d="M79.0599 47.9338H119.813C121.215 47.9338 122.352 49.0708 122.352 50.4734V91.226C122.352 92.6286 121.215 93.7654 119.813 93.7654H79.0599C77.6573 93.7654 76.5205 92.6286 76.5205 91.226V50.4734C76.5205 49.0708 77.6573 47.9338 79.0599 47.9338ZM133.803 107.744V148.497C133.803 149.899 134.939 151.036 136.342 151.036H177.094C178.497 151.036 179.634 149.899 179.634 148.497V107.744C179.634 106.342 178.497 105.205 177.094 105.205H136.342C134.939 105.205 133.803 106.342 133.803 107.744ZM76.5205 107.757V148.51C76.5205 149.912 77.6573 151.05 79.0599 151.05H119.813C121.215 151.05 122.352 149.912 122.352 148.51V107.757C122.352 106.355 121.215 105.218 119.813 105.218H79.0599C77.6573 105.218 76.5205 106.355 76.5205 107.757ZM76.5357 165.029V205.782C76.5357 207.184 77.673 208.321 79.0756 208.321H119.828C121.23 208.321 122.368 207.184 122.368 205.782V165.029C122.368 163.627 121.23 162.49 119.828 162.49H79.0756C77.673 162.49 76.5357 163.627 76.5357 165.029ZM133.803 205.786V165.033C133.803 163.63 134.939 162.494 136.342 162.494H177.094C178.497 162.494 179.634 163.63 179.634 165.033V205.786C179.634 207.189 178.497 208.325 177.094 208.325H136.342C134.939 208.325 133.803 207.189 133.803 205.786Z" fill="white"/>
</svg>
