<svg width="256" height="256" viewBox="0 0 256 256" fill="none" xmlns="http://www.w3.org/2000/svg">
<path d="M128.057 49.1703L59.7908 88.5852V167.415L128.057 206.83L196.209 167.415V88.5852L128.057 49.1703ZM175.991 155.715L127.943 183.431L80.0093 155.715V100.285L128.057 72.5693L175.991 100.285V155.715Z" fill="white"/>
<path d="M128.057 206.83L196.209 167.415V88.5852L128.057 49.1703V72.5693L175.991 100.285V155.829L127.943 183.544V206.83L128.057 206.83Z" fill="white"/>
<path d="M127.943 49.1703L59.7908 88.5852V167.415L127.943 206.83V183.431L80.0093 155.715L80.0093 100.171L127.943 72.5693V49.1703Z" fill="white"/>
<path d="M159.861 146.401L128.057 164.802L96.1387 146.401V109.599L128.057 91.1977L159.861 109.599L146.572 117.323L127.943 106.532L109.428 117.323V138.791L128.057 149.582L146.685 138.791L159.861 146.401Z" fill="white"/>
</svg>
