<svg width="257" height="257" viewBox="0 0 257 257" fill="none" xmlns="http://www.w3.org/2000/svg">
<path d="M49.7894 48.3847C46.705 48.7609 43.4324 49.5884 40.5737 50.7545L38.3543 51.6196L38.2415 67.8695C38.2039 77.0853 38.3167 84.1194 38.5048 84.1194C38.6553 84.1194 39.5956 83.7809 40.536 83.3671C43.5077 82.0506 47.7582 81.1478 52.9491 80.734C55.6575 80.5083 58.4786 80.2826 59.1557 80.1698L60.3594 80.0193V95.8178V111.579H58.5162C55.6951 111.579 49.15 112.293 46.5545 112.895C45.238 113.196 42.8306 113.986 41.1755 114.626L38.1663 115.754V132.117C38.1663 141.107 38.2415 148.442 38.3543 148.442C38.4672 148.442 39.4076 148.028 40.3856 147.501C43.771 145.809 48.3977 144.831 58.2153 143.74L60.3594 143.514V159.313V175.149L62.7292 174.848C65.7384 174.509 78.0763 174.509 80.4084 174.848L82.1764 175.149V159.538C82.1764 144.191 82.1764 143.928 82.9287 143.928C84.1324 143.928 91.9188 145.658 97.5987 147.163L102.865 148.592V164.09V179.625L106.175 180.603C107.981 181.167 112.57 182.597 116.406 183.8C120.243 185.004 126.45 186.659 130.211 187.449L137.095 188.879V196.477V204.038L138.148 204.263C141.007 204.865 150.561 206.37 151.502 206.37H152.517V198.997V191.587L154.323 191.813C155.301 191.925 158.235 192.264 160.906 192.527L165.683 192.979V200.389V207.761L167.413 208.025C168.391 208.138 171.701 208.25 174.748 208.25H180.353V200.765V193.317L182.911 193.091C189.042 192.49 195.85 190.082 201.117 186.584C211.987 179.324 218.796 164.805 217.818 150.887C217.028 139.978 212.175 133.17 202.997 130.198L201.004 129.559L203.449 127.001C207.887 122.262 211.047 116.093 212.514 109.096C213.379 105.071 213.417 97.2472 212.552 93.749C210.031 83.3295 201.455 77.4991 185.13 75.1293L180.541 74.4899L180.428 67.0796C180.353 59.7446 180.315 59.6694 179.488 59.5189C179.036 59.4437 176.478 59.1803 173.77 58.917C171.099 58.6913 168.165 58.428 167.3 58.2776L165.683 58.0519V65.4998V72.91L163.915 72.6843C161.545 72.3458 154.022 70.954 153.194 70.7283C152.593 70.5402 152.517 69.8631 152.517 63.0547V55.5316L151.502 55.306C150.9 55.1555 147.514 54.328 143.903 53.4252C140.292 52.5224 137.283 51.7701 137.208 51.7701C137.133 51.7701 137.095 55.1555 137.095 59.2932C137.095 63.4309 137.02 66.8163 136.945 66.8163C136.869 66.8163 133.822 65.9511 130.174 64.9355C126.525 63.8823 123.478 63.0547 123.365 63.0547C123.252 63.0547 123.177 69.9384 123.177 78.3266C123.177 92.7334 123.14 93.5985 122.538 93.3352C121.409 92.8838 103.467 86.3763 103.354 86.3763C103.279 86.3763 103.241 79.3799 103.241 70.8411V55.2683L97.1473 53.3499C90.6022 51.2811 83.8691 49.5132 82.5901 49.5132C81.8002 49.5132 81.8002 49.5884 81.8002 65.0484V80.5836L78.5277 80.0569C76.6469 79.756 72.0954 79.4927 67.9953 79.4551L60.7355 79.4175V63.6942V48.0085L56.5226 48.0462C54.1905 48.0838 51.1436 48.2342 49.7894 48.3847ZM88.0068 82.4267C92.7087 83.5176 102.15 86.3011 102.602 86.7149C102.752 86.8653 102.827 93.749 102.79 102.062L102.677 117.108L97.7868 115.679C93.7619 114.475 89.0976 113.347 83.0415 112.105L82.1764 111.955V96.5325V81.1102L83.0415 81.2606C83.4929 81.3735 85.7498 81.9001 88.0068 82.4267ZM158.498 96.7206C161.507 97.2096 166.36 97.8867 169.256 98.2252C176.817 99.0904 178.886 99.6546 181.707 101.723C182.723 102.476 183.663 103.642 184.34 105.071C185.28 106.952 185.431 107.667 185.393 110.262C185.356 115.039 183.437 118.237 179.6 120.005C176.328 121.472 167.789 121.095 155.338 118.989L152.705 118.538L152.593 107.14C152.555 100.896 152.63 95.7802 152.743 95.7802C152.856 95.7802 155.451 96.194 158.498 96.7206ZM75.2175 111.579C77.2864 111.767 79.6185 112.03 80.4084 112.181L81.8002 112.406V127.829V143.289L80.2204 143.025C77.1735 142.574 66.1898 142.348 63.4815 142.687L60.7355 143.025V127.34V111.616L62.7292 111.466C66.7916 111.203 71.5688 111.24 75.2175 111.579ZM113.585 121.321L122.989 124.631L123.102 139.677L123.177 154.724L113.209 151.489L103.241 148.254V133.095C103.241 121.246 103.354 117.973 103.73 117.973C103.956 118.011 108.432 119.516 113.585 121.321ZM158.16 143.364C165.006 144.267 165.081 144.304 173.281 144.868C184.001 145.621 186.823 146.712 189.004 150.924C189.832 152.504 189.945 153.219 189.945 156.529C189.945 159.576 189.794 160.629 189.155 161.983C187.613 165.294 184.49 167.475 180.165 168.378C176.704 169.093 164.103 168.34 155.075 166.836L152.517 166.422V154.385C152.517 143.138 152.555 142.386 153.194 142.574C153.533 142.687 155.79 143.025 158.16 143.364Z" fill="white"/>
</svg>
