<svg width="256" height="256" viewBox="0 0 256 256" fill="none" xmlns="http://www.w3.org/2000/svg">
<path d="M186.336 128.048C186.336 108.938 186.289 89.8277 186.389 70.7188C186.404 67.9708 185.765 66.1897 183.051 64.7447C165.669 55.4878 148.352 46.1214 131.1 36.6454C128.886 35.4304 127.237 35.352 124.961 36.6009C107.705 46.0719 90.3939 55.4461 73.0294 64.7235C70.6842 65.9787 69.5603 67.3432 69.568 70.1294C69.6788 108.68 69.6817 147.231 69.5769 185.783C69.5702 188.506 70.5657 189.918 72.9696 191.21C90.3297 200.503 107.637 209.886 124.89 219.358C127.124 220.585 128.718 220.666 131.007 219.405C148.095 209.991 165.222 200.648 182.481 191.515C185.542 189.894 186.44 188.087 186.414 184.877C186.258 165.934 186.336 146.991 186.336 128.048ZM174.871 82.5198C174.865 94.4173 174.871 106.315 174.871 119.122L139.6 99.4765C150.969 93.1482 161.682 87.2111 172.359 81.2158C174.159 80.2054 174.871 80.5722 174.871 82.5198ZM169.055 128.415C160.809 133.042 153.168 137.337 145.521 141.617C142.54 143.286 139.51 144.88 136.552 146.592C134.948 147.522 133.953 147.53 133.95 145.426C133.939 133.559 133.945 121.693 133.945 108.86L169.055 128.415ZM125.107 48.669C127.146 47.4911 128.692 47.4053 130.786 48.6171C143.203 55.8073 155.715 62.8586 169.016 70.4241C161.308 74.6903 154.165 78.8091 146.849 82.6438C140.505 85.9707 134.464 92.2746 127.811 91.929C121.452 91.5972 115.367 86.0418 109.209 82.7053C102.012 78.8113 94.8685 74.8345 86.9082 70.4559C100.178 62.9063 112.679 55.8476 125.107 48.669ZM122.029 148.041L86.8418 128.457C98.2767 122.104 108.85 116.24 119.396 110.336C120.946 109.467 122.018 109.276 122.02 111.449C122.037 123.324 122.029 135.199 122.029 148.041ZM83.5808 81.1903C94.2606 87.1899 104.981 93.1312 116.375 99.4744L81.1137 119.124C81.1137 106.343 81.1137 94.4544 81.1137 82.5654C81.1104 80.726 81.6862 80.1259 83.5808 81.1903ZM171.666 185.513C158.172 192.934 144.733 200.442 131.347 208.037C128.965 209.392 127.162 209.485 124.725 208.101C111.195 200.416 97.567 192.892 83.9562 185.338C82.2233 184.378 81.0407 183.364 81.0573 181.134C81.1569 167.034 81.1071 152.927 81.1071 137.764C95.4255 145.754 108.937 153.038 122.138 160.806C126.385 163.305 129.457 163.418 133.75 160.873C146.09 153.558 158.819 146.845 171.269 139.693C174.382 137.905 174.94 138.49 174.916 141.672C174.816 154.623 174.822 167.574 174.933 180.526C174.959 183.092 173.837 184.323 171.666 185.517V185.513Z" fill="#FEFEFE"/>
</svg>
