<svg width="257" height="256" viewBox="0 0 257 256" fill="none" xmlns="http://www.w3.org/2000/svg">
<path d="M187.13 48.5582L207.24 67.7417C206.668 68.4568 206.221 69.0786 205.673 69.7004C199.393 76.3105 193.143 82.9454 186.77 89.4684C185.296 90.9794 185.128 92.0614 186.148 93.9891C198.477 116.789 198.209 139.48 185.346 162.061C184.376 163.758 184.836 164.548 186.036 165.686C193.411 172.65 200.724 179.683 208.31 186.934L188.946 207.249L179.967 198.606C175.334 194.153 170.671 189.738 166.1 185.23C164.925 184.073 164.017 184.049 162.599 184.838C139.032 197.984 115.608 197.58 92.3637 183.937C92.093 183.794 91.8125 183.672 91.5242 183.57C91.305 183.549 91.0843 183.549 90.865 183.57C83.4715 191.312 75.8914 199.234 68.0439 207.442L47.7288 188.078L71.4391 163.205C57.678 138.885 57.877 114.814 72.0236 90.5006L49.5942 69.0351L68.9767 48.7759C73.9513 53.5018 78.7083 58.066 83.4964 62.6116C86.2013 65.1735 88.6265 69.1532 91.7543 69.8248C94.5649 70.4466 98.128 67.3375 101.411 65.957C122.429 57.2514 142.862 58.6008 162.605 69.7999C164.695 70.9814 165.845 71.0063 167.518 69.1781C173.836 62.3566 180.334 55.6782 187.13 48.5582ZM168.612 127.493C168.575 104.927 150.579 86.894 128.193 86.9686C105.808 87.0432 87.9362 105.002 87.8927 127.611C87.8492 149.549 106.069 167.67 128.162 167.67C150.548 167.67 168.65 149.68 168.612 127.493Z" fill="white"/>
</svg>
