<svg width="256" height="257" viewBox="0 0 256 257" fill="none" xmlns="http://www.w3.org/2000/svg">
<path d="M99.6461 138.286C103.6 138.286 107.458 136.968 110.576 134.557L85.5013 109.482C79.4576 117.294 80.9042 128.545 88.716 134.589C91.8664 136.968 95.692 138.286 99.6461 138.286Z" fill="white"/>
<path d="M174.228 120.38C174.228 116.426 172.91 112.568 170.498 109.45L145.424 134.524C153.235 140.568 164.455 139.121 170.498 131.31C172.91 128.191 174.228 124.334 174.228 120.38Z" fill="white"/>
<path d="M186.861 93.0867L175.771 104.177C184.708 114.882 183.293 130.827 172.588 139.764C163.201 147.608 149.571 147.608 140.184 139.764L128 151.948L115.848 139.797C105.143 148.733 89.1982 147.319 80.2613 136.614C72.4174 127.227 72.4174 113.597 80.2613 104.21L74.5713 98.5195L69.1705 93.0867C62.6446 103.824 59.2049 116.168 59.2049 128.738C59.2049 166.736 90.0019 197.533 128 197.533C165.998 197.533 196.795 166.736 196.795 128.738C196.827 116.168 193.355 103.824 186.861 93.0867Z" fill="white"/>
<path d="M177.764 81.2565C151.564 53.7707 108.036 52.7419 80.5506 78.9419C79.747 79.7134 78.9754 80.485 78.236 81.2565C76.5322 83.0567 74.9249 84.9213 73.414 86.8823L128 141.5L182.586 86.8823C181.107 84.9213 179.468 83.0567 177.764 81.2565ZM128 68.9441C144.073 68.9441 159.054 75.1485 170.306 86.4643L128 128.77L85.6942 86.4643C96.9457 75.1485 111.926 68.9441 128 68.9441Z" fill="white"/>
</svg>
