<svg width="257" height="257" viewBox="0 0 257 257" fill="none" xmlns="http://www.w3.org/2000/svg">
<path d="M191.627 62.7534H208.505L140.07 140.899C138.336 142.864 138.22 145.87 139.954 147.951L179.374 193.844H161.802L125.389 151.303L123.539 148.991C121.805 147.026 121.921 143.905 123.655 141.939L191.627 62.7534Z" fill="white"/>
<path d="M153.595 147.951C152.439 146.679 152.092 144.829 152.439 143.211C152.786 142.286 153.364 141.361 154.057 140.668L158.566 135.697L208.852 193.844H192.899C192.899 193.844 163.421 159.395 153.595 147.951Z" fill="white"/>
<path d="M65.7389 193.844H48.1677L102.037 131.535C103.771 129.57 103.771 126.565 102.037 124.599L48.6301 62.7534H65.5077L119.262 125.062C120.649 126.911 120.88 129.57 119.377 131.304C105.274 147.604 65.7389 193.844 65.7389 193.844Z" fill="white"/>
<path d="M95.1013 62.7534H78.9173L128.741 120.438C128.741 120.438 128.856 120.322 134.405 113.733C135.908 111.999 136.255 109.803 134.521 108.069C124.117 97.4334 95.1013 62.7534 95.1013 62.7534Z" fill="white"/>
<path d="M143.653 102.982L178.218 62.7534H161.802L143.769 83.7926L138.567 89.9194C136.833 91.8846 136.717 94.8902 138.451 96.971C139.723 98.4738 143.653 102.982 143.653 102.982Z" fill="white"/>
<path d="M113.597 153.615L79.0329 193.844H95.3325L113.366 172.805L118.568 166.678C120.302 164.713 120.418 161.707 118.684 159.626C117.412 158.123 113.597 153.615 113.597 153.615Z" fill="white"/>
</svg>
