<svg width="256" height="257" viewBox="0 0 256 257" fill="none" xmlns="http://www.w3.org/2000/svg">
<path d="M128 211.62V183.151C125.134 183.151 122.207 182.902 119.341 182.466L114.856 210.561C119.217 211.308 123.639 211.62 128 211.62ZM141.082 210.623C145.442 209.938 149.741 208.941 153.914 207.571L145.131 180.473C142.39 181.345 139.524 182.03 136.659 182.466L141.082 210.623ZM102.086 207.571L110.869 180.535C108.128 179.663 105.449 178.541 102.833 177.233L89.8759 202.587C93.8004 204.518 97.9119 206.2 102.086 207.571ZM166.062 202.587C169.986 200.594 173.724 198.289 177.275 195.735L160.455 172.748C158.15 174.43 155.659 175.987 153.042 177.233L166.062 202.587ZM78.6629 195.672L95.4824 172.686C93.1775 171.004 90.9349 169.135 88.8792 167.079L68.6958 187.2C71.8106 190.253 75.1745 193.118 78.6629 195.672ZM187.18 187.325L187.366 187.138C190.481 184.086 193.347 180.722 195.901 177.233L172.852 160.476C171.17 162.781 169.239 165.024 167.245 167.017L166.934 167.328L176.652 176.486L187.18 187.325ZM60.1615 177.171L83.2104 160.414C81.5285 158.109 79.9711 155.617 78.6629 153.063L53.2469 165.958C55.2403 169.883 57.5452 173.62 60.1615 177.171ZM202.753 166.02C204.747 162.158 206.429 158.047 207.799 153.873L180.639 145.152C179.767 147.893 178.645 150.571 177.337 153.125L202.753 166.02ZM48.201 153.873L75.3613 145.089C74.4892 142.348 73.804 139.545 73.3679 136.68L45.1486 141.103C45.8338 145.401 46.8928 149.699 48.201 153.873ZM210.851 141.165C211.537 136.867 211.91 132.444 211.91 128.083H183.38C183.38 130.949 183.13 133.876 182.694 136.742L210.851 141.165ZM72.6827 128.021C72.6827 125.155 72.9319 122.227 73.3679 119.362L45.1486 114.939C44.4634 119.237 44.1519 123.66 44.0896 128.021H72.6827ZM182.694 119.424L210.914 115.001C210.228 110.703 209.232 106.405 207.861 102.231L180.701 110.952C181.573 113.755 182.258 116.559 182.694 119.424ZM75.3613 110.952C76.2335 108.211 77.3548 105.533 78.6629 102.979L53.2469 90.0836C51.2534 93.9458 49.5715 98.0573 48.201 102.231L75.3613 110.952ZM177.399 103.041L202.878 90.1459C200.884 86.2213 198.579 82.4837 195.963 78.9329L172.852 95.6901C174.534 97.995 176.091 100.487 177.399 103.041ZM83.2104 95.6278C84.8924 93.3229 86.8235 91.0803 88.8792 89.0246L88.9415 88.9623L68.7581 68.8412L68.6958 68.9035C65.5811 72.0182 62.7156 75.3198 60.1615 78.8706L83.2104 95.6278ZM167.245 89.1492L173.35 82.982L187.366 69.0281L187.304 68.9658C184.189 65.9134 180.888 63.0479 177.399 60.4938L160.58 83.4804C162.885 85.1623 165.127 87.0312 167.121 89.0869L167.245 89.1492ZM95.5447 83.3558C97.8496 81.6739 100.341 80.1788 102.958 78.8706L90.0005 53.5168C86.0759 55.5103 82.3383 57.8151 78.7875 60.3692L95.5447 83.3558ZM153.229 78.9329L166.249 53.5791C162.324 51.5857 158.275 49.9038 154.101 48.5333L145.256 75.569C147.934 76.5034 150.613 77.6247 153.229 78.9329ZM110.994 75.569C113.735 74.6969 116.6 74.0117 119.466 73.5756L115.043 45.4809C110.744 46.1661 106.384 47.1628 102.21 48.5333L110.994 75.569ZM136.721 73.5756L141.206 45.4809C136.908 44.7956 132.485 44.4219 128.125 44.4219V72.8904C130.99 72.8904 133.918 73.1395 136.721 73.5756Z" fill="white"/>
<path d="M128 184.459V155.866C125.571 155.866 123.203 155.555 120.836 154.932L113.361 182.528C118.158 183.774 123.079 184.459 128 184.459ZM142.639 182.528C147.436 181.282 151.983 179.414 156.282 176.922L141.829 152.191C139.774 153.374 137.531 154.309 135.226 154.932L142.639 182.528ZM99.7807 176.922L114.233 152.191C112.177 151.007 110.246 149.512 108.502 147.83L108.253 147.581L99.1578 157.112L87.9448 167.889L88.1317 168.076C91.6202 171.502 95.5447 174.492 99.7807 176.922ZM167.931 168.076C171.419 164.587 174.472 160.725 176.901 156.489L151.921 142.162C150.737 144.217 149.242 146.086 147.498 147.83L167.931 168.076ZM79.099 156.427L104.079 142.162C102.895 140.106 101.961 137.926 101.338 135.621L73.4925 142.971C74.7384 147.643 76.6695 152.191 79.099 156.427ZM182.57 143.034C183.816 138.299 184.501 133.44 184.501 128.581H155.659C155.659 130.949 155.347 133.378 154.724 135.683L182.57 143.034ZM100.466 128.519C100.466 126.152 100.777 123.722 101.4 121.418L73.4925 114.067C72.2466 118.801 71.5614 123.66 71.5614 128.519H100.466ZM154.662 121.48L182.57 114.129C181.324 109.395 179.393 104.847 176.963 100.611L151.983 114.877C153.105 116.995 154.039 119.175 154.662 121.48ZM104.141 114.877C105.325 112.883 106.758 110.952 108.502 109.27L108.564 109.208L98.2234 98.9916L88.3186 88.8376L88.1317 89.0245C84.6432 92.4507 81.6531 96.3752 79.1613 100.549L104.141 114.877ZM147.498 109.27L157.714 99.1162L168.18 89.2737L167.931 89.0245C164.442 85.536 160.518 82.6082 156.282 80.1164L141.829 104.847C143.885 106.031 145.754 107.464 147.498 109.146V109.27ZM114.233 104.847C116.289 103.664 118.531 102.729 120.836 102.106L113.485 74.5099C108.689 75.7558 104.141 77.6247 99.843 80.1164L114.233 104.847ZM135.164 102.169L142.639 74.5722C137.905 73.3263 132.984 72.6411 128.062 72.6411V101.234C130.43 101.234 132.859 101.546 135.164 102.169Z" fill="white"/>
</svg>
