<svg width="257" height="257" viewBox="0 0 257 257" fill="none" xmlns="http://www.w3.org/2000/svg">
<path d="M206.41 123.397C200.266 123.081 194.145 123.397 187.955 122.349C178.955 120.812 170.778 118.025 164 111.754C161.588 109.451 159.192 107.188 156.751 104.942C149.219 98.0324 141.014 92.2741 130.626 90.5466C120.238 88.8192 110.374 91.0706 100.752 94.8423C96.8189 96.4007 93.0127 98.2624 89.368 100.411C93.9112 101.798 98.0629 102.846 102.036 104.343C108.065 106.647 113.673 109.595 117.221 115.393C118.13 116.885 118.125 117.697 116.196 118.071C100.919 121.111 88.8728 129.72 77.5463 140.494C80.2988 140.879 82.6366 141.231 84.9802 141.53C95.5523 142.86 105.71 145.561 114.998 150.922C129.428 159.26 129.117 176.667 118.096 185.701C115.617 187.806 112.729 189.376 109.615 190.312C106.501 191.249 103.226 191.531 99.9977 191.143C91.5849 190.124 84.7096 185.529 78.6922 179.506C69.3754 170.2 62.6786 159.478 59.3215 146.684C57.7265 140.591 56.5576 134.355 56.4424 128.171C56.356 122.286 57.4386 116.344 58.9242 110.487C62.0049 98.3548 67.671 87.7136 76.3371 78.8171C92.8172 61.8937 112.827 54.3446 136.528 56.6825C145.338 57.5545 153.991 59.6055 162.256 62.7804C178.145 70.6356 191.805 79.1116 201.187 94.7674C201.498 93.0975 200.531 91.9344 199.88 90.7367C195.824 83.0155 190.559 75.9921 184.287 69.9322C177.803 63.673 170.588 58.5309 162.256 55.0356C155.006 51.8052 147.807 49.6008 139.591 48.6612C131.875 47.7788 123.63 47.2504 115.366 48.6382C100.446 51.0296 86.5342 57.6824 75.3064 67.7959C61.8609 79.7442 53.4711 94.6062 49.7398 112.175C47.9342 120.663 47.9601 129.2 48.8761 137.902C49.6654 144.878 51.4333 151.707 54.1276 158.189C61.7976 176.54 74.4023 190.435 92.0744 199.55C104.742 206.114 118.332 208.815 132.63 208.159C143.05 207.734 153.274 205.187 162.676 200.673C173.617 195.928 182.749 188.488 190.316 179.442C194.761 174.116 198.607 168.352 201.21 161.718C203.3 156.392 205.362 151.181 206.813 145.595C208.54 138.922 208.667 132.317 208.834 125.597C208.857 123.628 207.982 123.478 206.41 123.397ZM160.592 127.791C152.657 123.956 144.664 120.305 135.941 118.578C134.271 118.244 132.626 117.913 130.919 117.702C127.279 117.129 126.94 116.355 126.031 113.81C124.073 108.288 119.783 104.597 115.153 101.292L113.501 100.14C127.718 96.1494 139.292 100.785 149.622 110.188C153.901 114.081 157.753 118.474 162.688 121.618C169.022 126.881 176.553 129.282 184.488 130.699C185.974 130.964 187.465 131.171 189.389 131.476C180.285 134.453 172.045 132.91 164 129.242C162.878 128.73 161.732 128.286 160.592 127.814M195.815 152.845C189.362 170.115 176.756 183.34 162.4 191.345C154.338 195.335 145.701 198.214 136.747 199.222C129.048 200.116 121.255 199.753 113.673 198.145C117.336 196.458 120.583 194.788 123.537 192.519C135.445 183.358 138.509 165.242 129.871 152.977C126.088 147.593 120.819 143.822 114.9 141.018C111.023 139.194 107.03 137.63 102.946 136.336C101.471 135.811 99.8984 135.615 98.3393 135.76C97.9333 135.315 98.9151 134.511 99.37 134.2C113.731 124.376 128.933 123.749 144.722 130.169C149.639 132.179 154.482 134.35 159.359 136.446C163.39 138.922 167.87 140.108 172.442 141.052C177.014 141.996 181.569 141.806 186.095 141.231C190.868 140.648 195.484 139.144 199.684 136.803C199.107 142.29 197.806 147.676 195.815 152.822V152.845Z" fill="white"/>
</svg>
