<svg width="257" height="257" viewBox="0 0 257 257" fill="none" xmlns="http://www.w3.org/2000/svg">
<path d="M208.195 127.904C208.195 83.8052 172.332 48.1172 128.058 48.1172C83.7839 48.1172 47.8623 83.8052 47.8623 127.904C47.8623 137.016 49.3809 145.777 52.243 153.954C52.243 154.013 52.4182 154.48 52.4182 154.48C53.5864 158.102 47.9207 159.503 47.9207 161.664C47.9207 165.052 59.8362 164.585 59.8362 168.498C59.8362 171.944 48.0375 172.996 48.0375 176.442C48.0375 181.232 74.1464 179.538 74.4969 183.685C74.7305 186.839 65.5019 187.072 65.4434 190.46C65.3266 195.892 101.073 194.082 101.073 197.703C101.073 200.448 84.8353 199.455 84.8353 202.668C84.8353 205.88 106.213 207.924 129.81 207.924C153.408 207.924 169.645 205.296 169.645 202.492C169.645 199.689 154.459 200.273 154.809 197.703C155.335 193.264 189.037 195.542 189.037 190.402C189.037 187.715 179.75 187.072 180.101 184.152C180.509 180.005 208.254 180.647 208.254 176.384C208.254 172.996 194.528 172.178 194.528 168.674C194.528 165.111 208.254 165.227 208.137 161.898C208.078 159.328 202.004 159.387 203.931 153.954C206.677 145.719 208.254 136.957 208.195 127.904ZM182.729 150.567C179.925 156.817 173.676 155.59 172.975 158.218C172.215 160.964 180.685 161.314 180.685 164.176C180.685 167.622 154.926 166.279 155.16 170.835C155.335 173.697 173.442 174.222 173.091 177.201C172.566 181.582 144.997 179.362 144.763 183.568C144.588 186.605 158.256 186.722 158.256 189.526C158.256 191.862 147.508 193.147 126.948 193.147C103.468 193.147 92.078 191.862 93.363 189.292C94.5896 186.839 115.325 187.306 115.15 183.451C114.916 179.596 78.235 180.706 77.1253 176.968C76.1907 173.872 89.1575 173.229 89.0991 170.251C89.0407 167.272 72.5109 167.914 72.1021 164.293C71.8684 161.898 80.7466 162.073 80.3378 159.036C80.0457 156.875 76.3659 157.167 74.2048 152.669C70.7003 145.135 68.7144 136.724 68.7144 127.904C68.7144 95.3702 95.2321 68.9692 127.941 68.9692C160.65 68.9692 187.168 95.3702 187.168 127.904C187.285 135.906 185.649 143.558 182.729 150.567Z" fill="white"/>
</svg>
