<svg width="257" height="257" viewBox="0 0 257 257" fill="none" xmlns="http://www.w3.org/2000/svg">
<path d="M71.8261 128.714L71.9169 161.99L100.191 178.628V198.11L55.3697 171.822V118.984L71.8261 128.714ZM71.8261 95.4385V114.829L55.3596 105.089V85.6978L71.8261 75.957L88.3733 85.6978L71.8261 95.4385ZM111.999 85.6978L128.466 75.957L145.013 85.6978L128.466 95.4385L111.999 85.6978Z" fill="white"/>
<path d="M83.7292 155.093V135.612L100.196 145.352V164.743L83.7292 155.093ZM112.004 185.606L128.47 195.347L145.017 185.606V204.997L128.47 214.738L112.004 204.997V185.606ZM168.633 85.6978L185.1 75.957L201.647 85.6978V105.089L185.1 114.829V95.4385L168.633 85.6978ZM185.1 161.99L185.19 128.714L201.657 118.974V171.812L156.835 198.1V178.618L185.1 161.99Z" fill="white"/>
<path d="M173.289 155.089L156.823 164.739V145.348L173.289 135.607V155.089Z" fill="white"/>
<path d="M173.292 102.335L173.383 121.816L145.027 138.454V171.811L128.561 181.461L112.094 171.811V138.454L83.7393 121.816V102.335L100.276 92.5942L128.46 109.313L156.815 92.5942L173.362 102.335H173.292ZM83.7292 69.0691L128.47 42.6904L173.292 69.0691L156.825 78.8099L128.47 62.0913L100.196 78.8099L83.7292 69.0691Z" fill="white"/>
</svg>
