<svg width="256" height="257" viewBox="0 0 256 257" fill="none" xmlns="http://www.w3.org/2000/svg">
<path d="M90.5932 59.1963H96.8087C97.8339 59.2882 98.6726 59.8112 99.5266 60.3013C103.069 62.3328 106.613 64.3599 110.16 66.3825C113.773 68.4506 117.387 70.5175 121.002 72.583C124.756 74.7271 128.527 76.8437 132.257 79.0278C135.147 80.7203 136.878 83.2288 137.388 86.4928C137.461 86.9449 137.499 87.4018 137.501 87.8594C137.495 92.241 137.488 96.6226 137.509 101.004C137.509 101.584 137.333 101.936 136.804 102.225C134.485 103.491 132.193 104.805 129.891 106.102C127.589 107.399 125.307 108.679 123.02 109.975C122.613 110.205 122.204 110.432 121.794 110.655C121.391 110.872 121.185 110.758 121.149 110.319C121.133 110.122 121.14 109.926 121.14 109.73C121.14 105.649 121.14 101.568 121.14 97.4873C121.14 95.0911 120.413 92.9321 118.88 91.0472C117.992 89.9477 116.84 89.1686 115.624 88.4555C110.267 85.3266 104.92 82.1814 99.5831 79.02C98.1552 78.1757 96.6981 77.461 95.0474 77.1539C92.8679 76.7495 90.753 76.9576 88.7576 77.9032C87.4305 78.5315 86.1874 79.3216 84.9088 80.0433C82.132 81.6109 79.3557 83.1817 76.58 84.7556C74.4199 85.9776 72.2211 87.1392 70.1086 88.4374C67.3342 90.1433 65.6584 92.5881 65.279 95.8113C65.2375 96.1617 65.2165 96.5142 65.2161 96.8669C65.2161 103.681 65.2056 110.496 65.2225 117.31C65.2282 119.613 66.0354 121.653 67.4973 123.464C68.4336 124.624 69.6767 125.394 70.9424 126.135C75.3972 128.743 79.8473 131.361 84.2929 133.988C85.4884 134.695 86.6782 135.408 87.8842 136.093C89.1757 136.828 90.5875 137.235 92.0728 137.417C93.9235 137.653 95.8047 137.371 97.4973 136.606C98.3666 136.22 99.1545 135.687 99.9714 135.211C105.157 132.184 110.342 129.157 115.528 126.131C117.337 125.074 119.139 124.01 120.958 122.967C122.534 122.067 124.151 121.239 125.748 120.376C128.262 119.018 130.77 117.65 133.297 116.317C136.511 114.623 139.66 112.818 142.805 111.008C146.171 109.07 149.538 107.138 152.908 105.209C155.5 103.717 158.081 102.215 160.695 100.762C161.789 100.155 162.991 99.7971 164.238 99.6243C166.03 99.3754 167.802 99.4515 169.523 100.065C170.616 100.458 171.589 101.069 172.591 101.629C175.416 103.214 178.241 104.816 181.066 106.409C183.45 107.752 185.831 109.098 188.211 110.447C191.012 112.027 193.813 113.607 196.615 115.187C199.01 116.537 201.397 117.899 203.799 119.243C205.002 119.917 206.188 120.609 207.158 121.591C208.38 122.826 209.272 124.257 209.762 125.91C209.923 126.46 209.907 127.039 209.96 127.607C209.969 127.694 209.931 127.79 210 127.87V127.948C209.919 128.156 209.979 128.373 209.96 128.585V168.285C210.024 170.713 208.991 172.696 207.36 174.459C206.287 175.624 204.913 176.36 203.553 177.125C201.448 178.309 199.345 179.495 197.244 180.684C194.768 182.078 192.293 183.474 189.817 184.872C187.736 186.043 185.661 187.224 183.58 188.395C180.453 190.156 177.335 191.93 174.203 193.685C173.202 194.246 172.209 194.819 171.206 195.377C170.246 195.911 169.232 196.219 168.103 196.195C166.464 196.161 164.824 196.166 163.184 196.195C162.199 196.212 161.328 195.881 160.515 195.425C156.564 193.199 152.614 190.97 148.665 188.738C144.207 186.214 139.747 183.694 135.284 181.18C132.486 179.598 129.664 178.053 126.889 176.435C123.955 174.725 122.118 172.241 121.62 168.895C121.613 168.843 121.593 168.794 121.586 168.738C121.569 168.573 121.57 168.407 121.559 168.24C121.544 163.666 121.559 159.091 121.547 154.517C121.547 154.074 121.697 153.793 122.095 153.569C126.066 151.35 130.022 149.106 133.99 146.882C135.06 146.282 136.121 145.665 137.201 145.08C137.665 144.829 137.872 144.941 137.905 145.452C137.918 145.661 137.913 145.87 137.913 146.08C137.913 149.936 137.913 153.791 137.913 157.647C137.913 157.883 137.897 158.118 137.949 158.354C137.978 158.558 137.96 158.765 137.981 158.97C138.114 161.04 138.957 162.825 140.267 164.432C141.277 165.672 142.648 166.444 144.022 167.215C146.266 168.472 148.503 169.749 150.745 171.013C153.754 172.709 156.75 174.428 159.77 176.104C161.34 177.102 163.129 177.724 164.992 177.92C166.55 178.089 168.042 177.858 169.506 177.359C170 177.188 170.475 176.969 170.924 176.705C174.03 174.906 177.134 173.105 180.238 171.305C182.872 169.783 185.505 168.26 188.138 166.737C190.768 165.224 192.488 163.051 193.174 160.134C193.338 159.406 193.417 158.663 193.41 157.918C193.422 151.236 193.434 144.553 193.41 137.871C193.4 135.382 192.575 133.159 190.902 131.244C189.939 130.139 188.715 129.409 187.455 128.702C185.208 127.446 182.974 126.165 180.731 124.9C177.789 123.243 174.85 121.582 171.914 119.917C170.855 119.319 169.807 118.712 168.625 118.359C167.17 117.922 165.643 117.762 164.127 117.887C163.988 117.898 163.878 117.987 163.742 117.991C162.362 118.176 161.106 118.682 159.913 119.367C156.684 121.22 153.436 123.039 150.199 124.877C147.519 126.398 144.838 127.918 142.155 129.436C139.253 131.08 136.347 132.72 133.438 134.355C129.144 136.764 124.854 139.18 120.567 141.604C117.725 143.213 114.884 144.825 112.043 146.44C108.653 148.359 105.263 150.277 101.872 152.193C100.733 152.833 99.6057 153.496 98.4571 154.122C97.2546 154.769 95.9392 155.194 94.5776 155.374C94.5106 155.384 94.4468 155.404 94.3806 155.415C94.2337 155.433 94.086 155.433 93.9383 155.442C93.6889 155.453 93.4378 155.436 93.1916 155.491C93.0536 155.509 92.9139 155.509 92.7759 155.491C92.5532 155.453 92.3272 155.436 92.1011 155.439C91.9542 155.432 91.8064 155.431 91.6595 155.414C89.7069 155.207 88.0521 154.294 86.4022 153.347C83.5745 151.729 80.7331 150.143 77.8982 148.546C75.7166 147.314 73.5352 146.08 71.3541 144.846C68.8593 143.436 66.3629 142.028 63.8648 140.623C62.3666 139.779 60.8692 138.933 59.3727 138.086C59.2141 137.987 59.0637 137.877 58.9231 137.755C56.9187 136.616 54.8119 135.627 52.9553 134.261C51.1232 132.94 49.8095 131.05 49.2317 128.904C49.0355 128.197 49.0145 127.466 49.0137 126.744C49.0046 113.599 49 100.455 49 87.3128C49 84.9362 49.8766 82.9327 51.5201 81.2206C52.2514 80.4588 53.1571 79.9216 54.0846 79.4072C56.5587 78.0351 59.0086 76.6152 61.465 75.2172C65.2244 73.0799 68.9823 70.9411 72.7385 68.8007C75.2677 67.3618 77.7951 65.922 80.3206 64.4811C82.9973 62.9501 85.6757 61.4241 88.3556 59.9031C89.0458 59.5042 89.8021 59.296 90.5932 59.1963Z" fill="white"/>
</svg>
