<svg width="257" height="257" viewBox="0 0 257 257" fill="none" xmlns="http://www.w3.org/2000/svg">
<path fill-rule="evenodd" clip-rule="evenodd" d="M206.021 136.572C206.021 137.315 205.85 138.021 205.525 138.634L172.069 196.753C170.65 199.218 168.028 200.737 165.19 200.737H90.8482C88.0105 200.737 85.3884 199.218 83.9695 196.753L50.5109 138.628C50.1867 138.017 50.0175 137.314 50.0175 136.572C50.0175 134.167 51.9618 132.217 54.3602 132.217H91.0672L100.37 148.065L100.427 148.159C101.668 150.158 104.28 150.81 106.315 149.608L106.421 149.544C107.359 148.953 108.038 148.024 108.316 146.946L120.17 100.986L130.348 174.978L130.363 175.081C130.739 177.409 132.902 179.022 135.243 178.698L135.349 178.682C137.045 178.404 138.422 177.148 138.854 175.474L153.142 120.076L159.008 130.071L159.066 130.167C159.858 131.44 161.25 132.217 162.75 132.217H201.678C204.077 132.217 206.021 134.167 206.021 136.572ZM165.19 55.6553C168.028 55.6553 170.65 57.1737 172.069 59.6385L205.527 117.76C205.85 118.373 206.021 119.078 206.021 119.82C206.021 122.225 204.077 124.175 201.678 124.175H164.851L155.549 108.327L155.485 108.222C154.896 107.281 153.969 106.599 152.894 106.32L152.793 106.295C150.504 105.759 148.194 107.151 147.602 109.446L135.748 155.405L125.571 81.4136L125.555 81.3069C125.278 79.6066 124.026 78.2252 122.356 77.792C120.034 77.1896 117.665 78.5891 117.064 80.9181L102.776 136.315L96.9104 126.321L96.8521 126.225C96.0604 124.952 94.6689 124.175 93.1681 124.175H54.3602C51.9618 124.175 50.0175 122.225 50.0175 119.82C50.0175 119.084 50.1822 118.388 50.5004 117.78L83.9695 59.6385C85.3884 57.1737 88.0105 55.6553 90.8482 55.6553H165.19Z" fill="white"/>
</svg>
