<svg width="257" height="257" viewBox="0 0 257 257" fill="none" xmlns="http://www.w3.org/2000/svg">
<path d="M48.6177 137.181H50.7704C60.2823 137.181 69.7982 137.152 79.3101 137.181C89.25 137.217 97.6937 140.85 104.588 147.997C107.442 150.949 110.806 152.482 114.911 152.482C123.946 152.457 132.982 152.457 142.02 152.482C144.065 152.51 146.093 152.118 147.981 151.331C149.868 150.543 151.573 149.377 152.991 147.903C160.363 140.601 169.263 137.124 179.615 137.172C188.515 137.217 197.415 137.172 206.32 137.172H208.44C207.734 144.066 206.048 150.823 203.433 157.24C203.234 157.721 202.157 158.08 201.484 158.088C194.419 158.149 187.353 158.19 180.284 158.088C175.191 158.055 170.963 159.686 167.261 163.294C160.196 170.225 151.548 173.487 141.673 173.536C132.977 173.569 124.28 173.536 115.58 173.536C105.281 173.561 96.4869 169.997 89.3479 162.528C86.392 159.429 82.7634 158.108 78.5599 158.117C70.8827 158.117 63.2015 158.141 55.5243 158.08C54.8597 158.08 53.7956 157.692 53.5958 157.203C50.9995 150.798 49.3235 144.056 48.6177 137.181Z" fill="white"/>
<path d="M48.6177 119.294C49.3118 112.499 50.9773 105.839 53.5632 99.5164C53.7874 98.9782 54.8923 98.5134 55.6017 98.5052C62.9405 98.4319 70.2793 98.3788 77.6181 98.5052C82.5962 98.5786 86.6162 96.9559 90.147 93.3273C96.7438 86.5471 104.988 83.2039 114.434 83.0816C123.538 82.9674 132.643 83.0286 141.751 83.0816C151.626 83.1223 160.273 86.4207 167.331 93.3599C171 96.9845 175.261 98.5786 180.349 98.5175C187.41 98.4278 194.48 98.4685 201.55 98.5175C202.214 98.5175 203.266 98.9252 203.47 99.4063C206.054 105.717 207.723 112.365 208.428 119.148C208.155 119.27 208.02 119.372 207.914 119.372C197.114 119.372 186.305 119.702 175.513 119.217C167.216 118.846 159.829 115.401 153.88 109.489C150.125 105.754 145.865 103.989 140.568 104.091C132.215 104.254 123.852 104.181 115.498 104.091C111.095 104.054 107.515 105.567 104.429 108.751C97.6326 115.76 89.2704 119.351 79.4895 119.392C69.839 119.449 60.1926 119.392 50.5421 119.392C49.9346 119.4 49.3393 119.323 48.6177 119.294Z" fill="white"/>
<path d="M193.326 81.2428C180.667 82.4659 169.622 79.4326 160.599 70.2836C159.375 68.9964 157.902 67.9713 156.27 67.2704C154.638 66.5696 152.88 66.2076 151.104 66.2065C135.953 66.1657 120.803 66.1657 105.652 66.2065C104.048 66.2119 102.462 66.5511 100.996 67.2025C99.5295 67.8538 98.2148 68.8031 97.1352 69.99C89.5925 77.9444 80.4191 81.7851 69.4394 81.4059C67.6088 81.3447 65.77 81.4059 63.3238 81.4059C77.667 62.6512 96.0833 51.6431 119.05 48.9073C151.21 45.0667 179.032 60.7268 193.326 81.2428Z" fill="white"/>
<path d="M193.375 175.734C177.792 195.711 157.44 207.103 131.933 208.077C103.707 209.158 81.0755 197.742 63.2504 175.265C70.2834 175.073 76.7252 174.796 82.9795 177.136C88.0269 179.028 92.5117 181.764 96.1933 185.698C97.5733 187.243 99.2724 188.47 101.173 189.293C103.074 190.117 105.131 190.518 107.202 190.468C121.335 190.411 135.469 190.411 149.603 190.468C151.778 190.512 153.938 190.11 155.951 189.286C157.963 188.462 159.786 187.234 161.305 185.678C168.484 178.637 177.128 175.106 187.202 175.179C189.168 175.179 191.137 175.179 193.106 175.179L193.375 175.734Z" fill="white"/>
<path d="M128.786 143.627C124.696 143.703 120.744 142.152 117.798 139.314C114.852 136.477 113.154 132.586 113.077 128.496C112.926 120.061 119.783 113.089 128.374 112.954C132.43 112.903 136.343 114.452 139.264 117.266C142.186 120.08 143.881 123.932 143.981 127.987C144.205 136.406 137.413 143.402 128.786 143.627Z" fill="white"/>
</svg>
