<svg width="257" height="257" viewBox="0 0 257 257" fill="none" xmlns="http://www.w3.org/2000/svg">
<path d="M66.0193 45.5681C66.4481 45.3224 66.5278 45.2363 66.6319 45.2363C91.3033 45.4145 116.03 44.8984 140.683 46.0413C156.183 46.7541 170.004 53.0217 179.598 66.2083C186.57 75.7879 188.733 86.7932 188.488 98.419C188.053 119.114 178.869 134.108 159.797 142.661C159.528 142.784 159.283 142.974 158.762 143.276L190.007 210.997C188.678 211.077 187.802 211.175 186.944 211.175C178.367 211.175 169.79 211.132 161.213 211.23C159.24 211.23 158.106 210.763 157.249 208.834C148.837 190.012 140.266 171.259 131.897 152.419C130.758 149.863 129.373 149.052 126.635 149.101C116.936 149.279 107.232 149.101 97.5339 149.205C95.5857 149.205 94.4155 148.738 93.4904 146.87C89.7165 139.294 85.7649 131.803 81.6173 123.778C82.9651 123.692 83.9944 123.582 85.0236 123.576C99.3167 123.576 113.61 123.655 127.909 123.508C131.781 123.523 135.642 123.09 139.415 122.218C154.731 118.402 159.565 105.627 157.947 93.2759C156.079 78.9586 146.491 71.3084 130.439 71.0442C115.123 70.8169 99.8068 70.909 84.4906 71.0442C82.0768 71.0442 80.8883 70.2085 79.7365 68.2545C75.2887 60.7149 70.6754 53.2245 66.0193 45.5681Z" fill="white"/>
</svg>
