<svg width="257" height="257" viewBox="0 0 257 257" fill="none" xmlns="http://www.w3.org/2000/svg">
<path fill-rule="evenodd" clip-rule="evenodd" d="M69.0768 160.585V58.0071C69.0768 54.6149 70.4277 51.3616 72.8323 48.963C75.2369 46.5643 78.4982 45.2168 81.8988 45.2168H174.859C178.26 45.2168 181.521 46.5643 183.926 48.963C186.33 51.3616 187.681 54.6149 187.681 58.0071V160.585C187.68 162.501 187.247 164.392 186.415 166.119C185.583 167.846 184.372 169.364 182.873 170.562L134.389 209.38C132.684 210.742 130.564 211.484 128.379 211.484C126.194 211.484 124.074 210.742 122.369 209.38L73.8851 170.562C72.3857 169.364 71.1752 167.846 70.3429 166.119C69.5107 164.392 69.078 162.501 69.0768 160.585ZM162.72 81.9164V104.327C162.72 107.295 161.565 110.142 159.508 112.243C157.451 114.344 154.66 115.526 151.748 115.532C154.664 115.532 157.46 116.713 159.521 118.814C161.583 120.916 162.741 123.766 162.741 126.737V146.942C162.74 148.62 162.369 150.277 161.655 151.79C160.942 153.303 159.904 154.633 158.619 155.682L141.608 169.604C141.406 169.77 141.162 169.873 140.905 169.903C140.648 169.933 140.388 169.888 140.155 169.774C139.921 169.66 139.724 169.481 139.586 169.257C139.448 169.034 139.375 168.776 139.375 168.512V129.539C139.375 127.31 138.506 125.172 136.96 123.596C135.414 122.02 133.317 121.135 131.131 121.135H118.764C118.399 121.135 118.05 121.283 117.792 121.545C117.535 121.808 117.39 122.164 117.39 122.536V168.512C117.391 168.777 117.318 169.037 117.18 169.261C117.041 169.486 116.843 169.666 116.609 169.78C116.374 169.895 116.113 169.939 115.855 169.908C115.596 169.877 115.352 169.772 115.15 169.604L98.1391 155.682C96.8537 154.633 95.8159 153.303 95.1024 151.79C94.3889 150.277 94.018 148.62 94.0169 146.942V81.9164C94.0169 78.9446 95.1751 76.0945 97.2366 73.9931C99.2981 71.8917 102.094 70.7112 105.009 70.7112H151.728C154.643 70.7112 157.439 71.8917 159.501 73.9931C161.562 76.0945 162.72 78.9446 162.72 81.9164ZM118.75 109.93H131.117C133.303 109.93 135.4 109.044 136.947 107.468C138.492 105.892 139.361 103.755 139.361 101.526V83.3171C139.361 82.9456 139.216 82.5893 138.959 82.3267C138.701 82.064 138.352 81.9164 137.987 81.9164H118.75C118.386 81.9164 118.036 82.064 117.779 82.3267C117.521 82.5893 117.376 82.9456 117.376 83.3171V108.529C117.376 108.901 117.521 109.256 117.779 109.519C118.036 109.782 118.386 109.93 118.75 109.93Z" fill="white"/>
</svg>
