<svg width="257" height="257" viewBox="0 0 257 257" fill="none" xmlns="http://www.w3.org/2000/svg">
<path d="M71.394 111.554C65.4887 106.017 61.4288 98.8201 61.4288 90.3312V89.4085C61.9824 75.0143 73.7931 63.2036 88.1873 62.8345H180.274C182.673 63.0191 184.518 64.6799 184.518 67.079V145.14C186.548 145.509 187.655 145.878 189.685 146.432C191.346 146.986 193.561 148.277 193.561 148.277V67.079C193.376 59.6973 187.471 53.792 180.089 53.792H88.1873C68.2568 54.1611 52.3862 70.4007 52.3862 90.3312C52.3862 101.957 57.7379 111.923 66.2269 118.751C66.7805 119.304 67.3341 119.858 68.995 119.858C71.7631 119.858 73.6085 117.643 73.424 115.429C73.424 113.399 72.6858 112.661 71.394 111.554Z" fill="white"/>
<path d="M177.875 150.308H105.719C100.921 150.308 97.0454 154.183 97.0454 159.166V169.5C97.2299 174.298 101.29 178.358 106.088 178.358H111.44V169.5H106.088V159.35C106.088 159.35 107.38 159.35 109.041 159.35C118.083 159.35 124.911 167.839 124.911 176.882C124.911 185.001 117.53 195.151 105.35 194.413C94.4618 193.675 88.5565 184.079 88.5565 176.882V88.8553C88.5565 84.98 85.2347 81.6582 81.3594 81.6582H74.1622V90.7007H79.5139V177.066C79.1449 194.598 92.0628 203.456 105.35 203.456L178.059 203.64C192.638 203.64 204.633 191.83 204.633 177.066C204.449 162.118 192.638 150.308 177.875 150.308ZM195.406 177.435C195.037 186.847 187.286 194.413 177.875 194.413L127.31 194.229C131.37 189.615 133.769 183.525 133.769 176.882C133.769 166.547 127.679 159.35 127.679 159.35H178.059C187.655 159.35 195.591 167.285 195.591 176.882L195.406 177.435Z" fill="white"/>
<path d="M158.498 92.1763H104.058V83.1338H158.498C160.897 83.1338 162.927 85.1637 162.927 87.5628C162.927 90.1464 161.081 92.1763 158.498 92.1763Z" fill="white"/>
<path d="M158.498 134.621H104.058V125.578H158.498C160.897 125.578 162.927 127.608 162.927 130.007C162.927 132.591 161.081 134.621 158.498 134.621Z" fill="white"/>
<path d="M168.094 113.398H104.058V104.355H168.094C170.493 104.355 172.523 106.385 172.523 108.784C172.523 111.368 170.493 113.398 168.094 113.398Z" fill="white"/>
</svg>
