<svg width="257" height="256" viewBox="0 0 257 256" fill="none" xmlns="http://www.w3.org/2000/svg">
<path d="M74.9892 162.204C75.9369 161.257 77.24 160.705 78.622 160.705H203.953C206.243 160.705 207.388 163.466 205.769 165.083L181.011 189.813C180.063 190.76 178.76 191.312 177.378 191.312H52.0475C49.7573 191.312 48.6122 188.551 50.2311 186.934L74.9892 162.204Z" fill="white"/>
<path d="M74.9892 69.8694C75.9764 68.9228 77.2795 68.3706 78.622 68.3706H203.953C206.243 68.3706 207.388 71.1316 205.769 72.7487L181.011 97.479C180.063 98.4256 178.76 98.9778 177.378 98.9778H52.0475C49.7573 98.9778 48.6122 96.2168 50.2311 94.5997L74.9892 69.8694Z" fill="white"/>
<path d="M181.011 115.741C180.063 114.794 178.76 114.242 177.378 114.242H52.0475C49.7573 114.242 48.6122 117.003 50.2311 118.62L74.9892 143.35C75.9369 144.297 77.24 144.849 78.622 144.849H203.953C206.243 144.849 207.388 142.088 205.769 140.471L181.011 115.741Z" fill="white"/>
</svg>
