<svg width="257" height="256" viewBox="0 0 257 256" fill="none" xmlns="http://www.w3.org/2000/svg">
<path d="M176.535 121.546C172.291 114.225 168.14 106.851 163.95 99.4978C154.294 82.5549 144.698 65.568 134.952 48.669C131.51 42.7028 125.805 42.783 122.146 48.616C121.842 49.1023 121.554 49.5989 121.27 50.0969C107.222 74.7775 93.1748 99.4586 79.1291 124.14C71.9664 136.724 69.6659 150.146 72.2275 164.406C77.1214 191.542 101.608 212.07 128.756 211.779C160.569 211.438 185.914 185.49 185.842 153.327C185.812 141.948 183.136 132.927 176.535 121.546ZM151.95 192.954C121.052 209.419 88.7737 190.558 84.1817 160.007C82.5805 149.349 84.7984 139.527 90.0988 130.276C93.3593 124.585 96.5707 118.872 100.192 112.486C102.359 119.082 104.686 124.709 108.792 129.429C114.972 136.532 122.682 141.295 131.362 144.618C136.602 146.624 141.532 149.179 146.12 152.426C154.737 158.523 159.281 167.104 160.538 177.332C161.39 184.297 157.948 189.76 151.95 192.954ZM171.142 166.053C165.411 148.722 152.329 139.437 136.478 133.063C135.551 132.69 134.613 132.341 133.689 131.955C109.726 121.932 107.54 101.654 117.531 82.0065C119.802 77.5419 122.391 73.2324 124.998 68.9514C127.276 65.2071 129.917 65.1515 132.094 68.9514C144.402 90.4599 156.867 111.891 168.737 133.638C174.252 143.753 175 154.812 171.142 166.053Z" fill="white"/>
</svg>
